<svg width="536" height="88" viewBox="0 0 536 88" fill="none" xmlns="http://www.w3.org/2000/svg">
<path d="M469.435 87.9908H366.523C364.987 87.9908 364.219 87.4788 364.219 86.4548C364.219 85.8148 364.347 85.3028 364.603 84.5348L400.571 4.02283C401.595 1.84682 403.131 0.694824 405.435 0.694824H508.347C526.267 0.694824 535.739 12.2148 535.739 27.9588C535.739 59.1908 501.691 87.9908 469.435 87.9908ZM471.739 49.5908L477.883 35.6388C480.571 29.6228 481.979 25.1428 481.979 22.1988C481.979 17.3348 478.523 15.6708 471.995 15.6708H446.011L420.667 72.8868H446.523C456.763 72.8868 463.931 66.8708 471.739 49.5908Z" fill="black"/>
<path d="M411.172 87.9908H367.14C365.476 87.9908 364.708 87.4788 364.708 86.4548C364.708 85.8148 364.836 85.3028 365.22 84.5348L381.476 47.9268H343.076L326.692 84.5348C325.668 86.8388 324.132 87.9908 321.956 87.9908H277.924C276.388 87.9908 275.492 87.4788 275.492 86.4548C275.492 85.8148 275.62 85.3028 276.004 84.5348L311.972 4.02283C312.996 1.84682 314.532 0.694824 316.836 0.694824H360.868C362.276 0.694824 363.172 1.20683 363.172 2.35883C363.172 2.87083 363.044 3.38283 362.66 4.02283L349.732 32.9508H388.26L401.06 4.02283C402.084 1.84682 403.748 0.694824 406.052 0.694824H449.956C451.492 0.694824 452.26 1.20683 452.26 2.35883C452.26 2.87083 452.132 3.38283 451.876 4.02283L415.908 84.5348C414.884 86.8388 413.348 87.9908 411.172 87.9908Z" fill="black"/>
<path d="M234.138 87.9908H131.226C129.69 87.9908 128.922 87.4788 128.922 86.4548C128.922 85.8148 129.05 85.3028 129.306 84.5348L165.274 4.02283C166.298 1.84682 167.834 0.694824 170.138 0.694824H273.05C290.97 0.694824 300.442 12.2148 300.442 27.9588C300.442 59.1908 266.394 87.9908 234.138 87.9908ZM236.442 49.5908L242.586 35.6388C245.274 29.6228 246.682 25.1428 246.682 22.1988C246.682 17.3348 243.226 15.6708 236.698 15.6708H210.714L185.37 72.8868H211.226C221.466 72.8868 228.634 66.8708 236.442 49.5908Z" fill="black"/>
<path d="M137.026 69.0468H127.682L120.77 84.5348C119.746 86.8388 118.082 87.9908 115.906 87.9908H74.3061C72.7701 87.9908 72.0021 87.4788 72.0021 86.4548C72.0021 85.8148 72.0021 85.3028 72.3861 84.5348L79.2981 69.0468H3.01013C1.34612 69.0468 0.578125 68.5348 0.578125 67.5108C0.578125 66.8708 0.706124 66.3588 0.962125 65.5908L3.65012 59.7028C4.54613 57.7828 6.21012 56.1188 8.51413 54.8388L97.8581 3.89483C101.57 1.71883 105.026 0.694824 108.226 0.694824H154.69C156.354 0.694824 157.122 1.20683 157.122 2.35883C157.122 2.87083 156.994 3.38283 156.61 4.02283L133.826 55.0948H143.17C144.834 55.0948 145.602 55.7348 145.602 56.8868C145.602 57.2708 145.474 57.9108 145.09 58.5508L142.018 65.5908C140.994 67.8948 139.33 69.0468 137.026 69.0468ZM85.5701 55.0948L102.338 17.2068L36.9301 55.0948H85.5701Z" fill="black"/>
</svg>
