<svg width="725" height="88" viewBox="0 0 725 88" fill="none" xmlns="http://www.w3.org/2000/svg">
<path d="M665.014 88H568.374C566.838 88 566.07 87.488 566.07 86.464C566.07 85.824 566.198 85.312 566.454 84.544L570.166 76.352C571.19 74.048 572.854 72.896 575.158 72.896H648.246L600.758 45.504C593.206 41.152 590.774 35.776 590.774 30.656C590.774 16.192 606.646 0.703979 627.894 0.703979H722.23C723.894 0.703979 724.662 1.21598 724.662 2.36798C724.662 2.87998 724.534 3.39198 724.15 4.03198L720.566 12.224C719.542 14.528 717.75 15.68 715.574 15.68H644.662L692.15 43.072C699.958 47.552 702.134 53.056 702.134 58.048C702.134 72.512 686.518 88 665.014 88Z" fill="#333333"/>
<path d="M537.257 88H440.617C439.081 88 438.312 87.488 438.312 86.464C438.312 85.824 438.441 85.312 438.697 84.544L442.409 76.352C443.433 74.048 445.097 72.896 447.401 72.896H520.489L473 45.504C465.448 41.152 463.017 35.776 463.017 30.656C463.017 16.192 478.889 0.703979 500.137 0.703979H594.473C596.137 0.703979 596.905 1.21598 596.905 2.36798C596.905 2.87998 596.777 3.39198 596.393 4.03198L592.808 12.224C591.784 14.528 589.993 15.68 587.817 15.68H516.904L564.393 43.072C572.201 47.552 574.377 53.056 574.377 58.048C574.377 72.512 558.761 88 537.257 88Z" fill="#333333"/>
<path d="M444.859 47.936H383.675C382.139 47.936 381.371 47.424 381.371 46.4C381.371 45.888 381.499 45.248 381.883 44.608L385.467 36.288C386.491 34.112 388.155 32.96 390.459 32.96H451.515C453.307 32.96 454.203 33.344 454.203 34.24C454.203 34.496 454.075 34.88 453.947 35.264L449.211 45.632C448.571 47.168 447.035 47.936 444.859 47.936ZM428.347 88H338.491C321.083 88 311.227 76.48 311.227 60.352C311.227 30.528 343.611 0.703979 377.403 0.703979H466.875C468.411 0.703979 469.179 1.21598 469.179 2.36798C469.179 2.87998 469.051 3.39198 468.795 4.03198L465.083 12.224C464.059 14.528 462.395 15.68 460.091 15.68H400.571C389.563 15.68 383.547 19.904 376.635 35.648L370.491 49.6C367.291 56.768 365.627 61.888 365.627 65.6C365.627 70.848 368.955 72.896 375.099 72.896H435.131C436.667 72.896 437.435 73.536 437.435 74.56C437.435 74.944 437.307 75.712 436.923 76.352L433.339 84.544C432.315 86.848 430.651 88 428.347 88Z" fill="#333333"/>
<path d="M299.978 88H257.226C253.898 88 251.466 86.976 250.186 84.544L228.81 43.968C228.298 43.2 227.914 42.56 227.914 41.536C227.914 41.024 228.17 40.256 228.682 39.232L230.09 36.288C231.114 34.112 232.65 32.96 234.954 32.96H252.362C263.498 32.96 269.258 27.584 269.258 21.44C269.258 17.856 266.314 15.68 260.042 15.68H231.498L200.778 84.544C199.754 86.848 198.218 88 195.914 88H152.01C150.474 88 149.578 87.488 149.578 86.464C149.578 85.824 149.706 85.312 150.09 84.544L186.058 4.03198C187.082 1.85598 188.618 0.703979 190.922 0.703979H302.794C314.698 0.703979 321.994 6.97598 321.994 16.192C321.994 32.96 304.714 45.12 283.85 47.68L303.178 83.904C303.306 84.16 303.434 84.672 303.434 85.056C303.434 86.464 302.026 88 299.978 88Z" fill="#333333"/>
<path d="M122.826 57.152H75.0819C73.5459 57.152 72.7779 56.512 72.7779 55.488C72.7779 54.976 72.7779 54.336 73.1619 53.696L76.8739 45.504C77.8979 43.2 79.4339 42.048 81.7379 42.048H97.9939C110.41 42.048 119.882 35.392 119.882 24C119.882 18.496 115.786 15.68 109.77 15.68H82.3779L51.7859 84.544C50.7619 86.848 49.0979 88 46.7939 88H2.88994C1.35394 88 0.585938 87.488 0.585938 86.464C0.585938 85.824 0.713937 85.312 0.969937 84.544L36.9379 4.03198C37.9619 1.85598 39.4979 0.703979 41.8019 0.703979H151.114C163.658 0.703979 171.466 7.48798 171.466 19.008C171.466 42.048 147.786 57.152 122.826 57.152Z" fill="#333333"/>
<rect x="419.125" y="72.9062" width="32.125" height="15.0938" fill="#333333"/>
</svg>
